<svg width="100%" height="100%" viewBox="0 0 494 494" version="1.1" xmlns="http://www.w3.org/2000/svg" xml:space="preserve" fill-rule="evenodd" clip-rule="evenodd" stroke-linejoin="round" stroke-miterlimit="2"><path d="M178.064 0L166.04.248c-14.876 0-27.236 12.112-27.236 26.992v439.664c0 14.876 13.396 26.624 28.272 26.624h.084l10.976-.072c14.892 0 26.22-11.92 26.22-26.808V26.996C204.352 12.116 193.028 0 178.064 0zm150.52 0l-12.092.248c-14.88 0-27.3 12.112-27.3 26.992v439.664c0 14.876 13.708 26.624 28.58 26.624h.084l10.816-.072c14.88 0 26.052-11.92 26.052-26.808V26.996C354.72 12.116 343.548 0 328.584 0z" fill="#fff" fill-rule="nonzero"/></svg>