<svg width="13" height="11" viewBox="0 0 13 11" version="1.1" xmlns="http://www.w3.org/2000/svg" xmlns:xlink="http://www.w3.org/1999/xlink"><defs><path id="path-1" d="M.931.572h12V10h-12z"/></defs><g id="Boostrap3-grid-system-layouts" stroke="none" stroke-width="1" fill="none" fill-rule="evenodd"><g id="HOME-Copy" transform="translate(-705 -1334)"><g id="Group-11" transform="translate(634 1332)"><g id="Group-10" transform="translate(71 2.143)"><mask id="mask-2" fill="#fff"><use xlink:href="#path-1"/></mask><path d="M12.074 8.929V3.786a3.932 3.932 0 0 1-.462.442A93.813 93.813 0 0 0 8.76 6.49c-.227.192-.413.342-.556.449a3.091 3.091 0 0 1-.579.325 1.684 1.684 0 0 1-.686.164h-.014c-.214 0-.443-.055-.686-.164a3.104 3.104 0 0 1-.58-.325 13.25 13.25 0 0 1-.555-.45 95.09 95.09 0 0 0-2.854-2.26 3.932 3.932 0 0 1-.462-.442V8.93c0 .058.021.108.064.15a.205.205 0 0 0 .15.064h9.858a.206.206 0 0 0 .15-.063.206.206 0 0 0 .064-.151m0-7.038v-.165c0-.02 0-.05-.003-.087a.214.214 0 0 0-.02-.084l-.038-.06a.12.12 0 0 0-.06-.05.241.241 0 0 0-.093-.017H2.002a.205.205 0 0 0-.15.063.206.206 0 0 0-.064.15c0 .75.328 1.385.984 1.903.862.679 1.757 1.386 2.686 2.123l.234.198c.13.109.232.192.308.25.076.059.175.129.298.21.123.084.235.145.34.186a.79.79 0 0 0 .286.06h.014a.79.79 0 0 0 .287-.06c.103-.041.216-.102.34-.185a5.63 5.63 0 0 0 .605-.461l.234-.198c.93-.737 1.824-1.444 2.686-2.123.24-.192.465-.45.672-.773.208-.324.312-.617.312-.881m.857-.248v7.286c0 .295-.105.547-.315.757a1.032 1.032 0 0 1-.756.314H2.002c-.294 0-.547-.105-.756-.314a1.032 1.032 0 0 1-.315-.757V1.643c0-.294.105-.547.315-.756a1.03 1.03 0 0 1 .756-.315h9.858c.294 0 .547.105.756.315.21.209.315.462.315.756" id="Fill-8" fill="#231F20" mask="url(#mask-2)"/></g></g></g></g></svg>