<svg width="179" height="47" viewBox="0 0 179 47" version="1.1" xmlns="http://www.w3.org/2000/svg" xmlns:xlink="http://www.w3.org/1999/xlink"><defs><path id="path-1" d="M0 .066h13.793v44.807H0z"/><path id="path-3" d="M0 47h179V0H0z"/></defs><g id="Boostrap3-grid-system-layouts" stroke="none" stroke-width="1" fill="none" fill-rule="evenodd"><g id="HOME-Copy-5" transform="translate(-611 -337)"><g id="Group-17" transform="translate(611 337)"><path d="M62.431 11.568c8.4 8.4 11.692 19.75 4.29 27.153-7.403 7.402-18.753 4.11-27.153-4.29-8.399-8.4-11.691-19.749-4.289-27.152 7.403-7.402 18.753-4.11 27.152 4.29M28 22.998C28 35.703 38.297 46 51 46c12.702 0 23-10.298 23-23C74 10.297 63.702 0 51 0 38.297 0 28 10.297 28 23" id="Fill-1" fill="#010202"/><path d="M111.432 11.568c8.399 8.4 11.691 19.75 4.288 27.153-7.402 7.402-18.752 4.11-27.152-4.29-8.399-8.4-11.691-19.749-4.289-27.152 7.403-7.402 18.753-4.11 27.153 4.29M77 22.998C77 35.703 87.297 46 100 46c12.702 0 23-10.298 23-23 0-12.703-10.298-23-23-23-12.703 0-23 10.297-23 23" id="Fill-3" fill="#010202"/><path d="M9.254 1.003S26 .39 26 18.274C26 35.327 9.003 35 9.003 35s-2.148-.57-.157-.57c1.99 0 12.01-.163 12.01-15.995 0-17.432-9.974-16.617-11.379-16.617-1.404 0-.223-.815-.223-.815" id="Fill-5" fill="#010202"/><g id="Group-9" transform="translate(0 1)"><mask id="mask-2" fill="#fff"><use xlink:href="#path-1"/></mask><path d="M13.793 44.392a3.93 3.93 0 0 1-3.931-3.93V.548h.002v-.48H.08v.48a4.278 4.278 0 0 1 4.28 4.276v35.21A4.358 4.358 0 0 1 0 44.393v.48h13.793v-.48z" id="Fill-7" fill="#010202" mask="url(#mask-2)"/></g><path d="M160 1.483V1h-12.93v.483c1.94 0 3.512 1.502 3.512 3.354v37.326c0 1.853-1.572 3.354-3.512 3.354H146V46h14v-.483h-.121c-1.94 0-3.513-1.501-3.513-3.354V4.837c0-1.852 1.573-3.354 3.513-3.354H160z" id="Fill-10" fill="#010202"/><path d="M179 1.483V1h-12.93v.483c1.94 0 3.512 1.502 3.512 3.354v37.326c0 1.853-1.572 3.354-3.512 3.354H165V46h14v-.483h-.121c-1.94 0-3.512-1.501-3.512-3.354V4.837c0-1.852 1.572-3.354 3.512-3.354H179z" id="Fill-12" fill="#010202"/><mask id="mask-4" fill="#fff"><use xlink:href="#path-3"/></mask><path id="Fill-14" fill="#010202" mask="url(#mask-4)" d="M154 18h16v-1h-16z"/><path d="M124.519 29.82c.311 8.284 5.455 18.985 13.713 16.217 6.586-2.207.808-13.006-5.42-20.662-4.614-5.672-13.04-15.294-4.88-22.777 5.376-4.931 11.938-2.383 13.749 3.786l2.283-5.531h.416l.006 15.64-.482-.023s-.966-4.928-3.054-10.294c-2.202-5.661-6.631-6.112-9.03-4.912-2.443 1.223-2.88 4.688-1.824 7.206 1.016 2.422 5.083 8.255 8 12.02 2.918 3.765 13.869 17.107 3.896 24.366-4.593 3.343-10.372 2.98-14.132-2.532l-3.172 4.483H124V29.819h.519z" id="Fill-16" fill="#010202" mask="url(#mask-4)"/></g></g></g></svg>