<svg width="13" height="13" viewBox="0 0 13 13" version="1.1" xmlns="http://www.w3.org/2000/svg" xmlns:xlink="http://www.w3.org/1999/xlink"><defs><path id="path-1" d="M0 .845h12.156V13H0z"/></defs><g id="Page-1" stroke="none" stroke-width="1" fill="none" fill-rule="evenodd"><g id="Splash-Page---Desktop" transform="translate(-750 -684)"><g id="Group-14" transform="translate(750 684)"><g id="instagram"><mask id="mask-2" fill="#fff"><use xlink:href="#path-1"/></mask><path d="M9.837 3.163a.699.699 0 0 1 .214.515c0 .2-.07.372-.214.514a.701.701 0 0 1-.515.214.7.7 0 0 1-.514-.214.7.7 0 0 1-.213-.514.7.7 0 0 1 .213-.515.7.7 0 0 1 .514-.213c.2 0 .372.07.515.213M7.51 8.355a1.95 1.95 0 0 0 .593-1.432A1.95 1.95 0 0 0 7.51 5.49a1.953 1.953 0 0 0-1.432-.594c-.56 0-1.037.199-1.433.594a1.95 1.95 0 0 0-.593 1.433c0 .559.197 1.036.593 1.432.396.396.874.593 1.433.593s1.036-.197 1.432-.593m.777-3.641c.606.607.91 1.344.91 2.209s-.304 1.601-.91 2.207a3.011 3.011 0 0 1-2.21.91 3.007 3.007 0 0 1-2.207-.91 3.007 3.007 0 0 1-.91-2.207c0-.865.304-1.602.91-2.209a3.007 3.007 0 0 1 2.208-.91c.865 0 1.601.304 2.209.91M6.684 1.932l-.606.005-.605-.005a95.685 95.685 0 0 0-.835 0c-.191.004-.445.01-.764.025a6.34 6.34 0 0 0-.815.078 3.41 3.41 0 0 0-.566.146 2.071 2.071 0 0 0-1.156 1.156 3.247 3.247 0 0 0-.146.566 6.32 6.32 0 0 0-.08.815c-.012.32-.02.574-.023.764-.002.19-.002.468 0 .835.002.367.005.568.005.606 0 .036-.003.239-.005.605s-.002.645 0 .834c.002.19.01.445.024.764.013.32.039.59.079.815.04.225.089.413.146.566a2.064 2.064 0 0 0 1.156 1.156c.153.058.342.106.566.145.224.04.496.068.815.08.319.014.573.02.764.024.19.003.468.003.835 0l.605-.004c.036 0 .238 0 .606.004.366.003.644.003.834 0 .19-.003.445-.01.764-.023s.59-.04.815-.08a3.18 3.18 0 0 0 .566-.146 2.05 2.05 0 0 0 .696-.46c.2-.2.354-.432.459-.696a3.11 3.11 0 0 0 .147-.566c.04-.224.066-.495.079-.815a26.938 26.938 0 0 0 .023-1.598l-.003-.605.003-.606a27.046 27.046 0 0 0-.023-1.599 6.126 6.126 0 0 0-.08-.815 3.145 3.145 0 0 0-.146-.566 2.063 2.063 0 0 0-1.155-1.156 3.387 3.387 0 0 0-.566-.146 6.374 6.374 0 0 0-.815-.078c-.32-.014-.573-.021-.764-.025h-.834m5.472 4.99c0 1.209-.013 2.045-.04 2.509-.052 1.098-.38 1.947-.981 2.548-.602.602-1.45.929-2.548.982-.465.026-1.301.039-2.51.039-1.207 0-2.044-.013-2.508-.04-1.097-.052-1.947-.379-2.548-.981-.602-.6-.93-1.45-.981-2.548C.013 8.967 0 8.13 0 6.923c0-1.21.013-2.045.04-2.51.052-1.097.38-1.946.98-2.548.602-.6 1.452-.928 2.549-.981.464-.026 1.3-.04 2.509-.04 1.208 0 2.044.014 2.509.04 1.098.053 1.946.38 2.548.98.601.603.929 1.452.982 2.55.026.464.039 1.3.039 2.509" id="Fill-1" fill="#231F20" mask="url(#mask-2)"/></g></g></g></g></svg>