<svg width="13" height="10" viewBox="0 0 13 10" version="1.1" xmlns="http://www.w3.org/2000/svg" xmlns:xlink="http://www.w3.org/1999/xlink"><defs><path id="path-1" d="M.337.571h12v8.572h-12z"/></defs><g id="Boostrap3-grid-system-layouts" stroke="none" stroke-width="1" fill="none" fill-rule="evenodd"><g id="Article-1" transform="translate(-1152 -5206)"><g id="Group-10" transform="translate(-4 5141)"><g id="Group-9" transform="translate(1028 25)"><g id="Group-14" transform="translate(31.5 38)"><g id="Group-13" transform="translate(97 2.143)"><mask id="mask-2" fill="#fff"><use xlink:href="#path-1"/></mask><path d="M8.908 4.857a.386.386 0 0 0-.2-.362l-3.43-2.142a.403.403 0 0 0-.435-.014.398.398 0 0 0-.222.375V7c0 .17.074.295.222.375.071.036.14.053.207.053a.382.382 0 0 0 .228-.067l3.428-2.143a.383.383 0 0 0 .201-.36m3.422-1.005a61.932 61.932 0 0 1 0 2.008c-.005.242-.024.546-.057.914a7.298 7.298 0 0 1-.15.988 1.56 1.56 0 0 1-.463.824 1.406 1.406 0 0 1-.83.388c-.99.112-2.489.168-4.493.168-2.005 0-3.503-.056-4.493-.168a1.42 1.42 0 0 1-.834-.388 1.56 1.56 0 0 1-.466-.824A8.48 8.48 0 0 1 .4 6.775a13.02 13.02 0 0 1-.056-.914 52.199 52.199 0 0 1-.007-1.004c0-.429.002-.764.007-1.004.004-.242.023-.546.056-.914a7.46 7.46 0 0 1 .151-.988 1.56 1.56 0 0 1 .462-.824c.237-.223.513-.353.831-.388.99-.112 2.488-.168 4.493-.168 2.004 0 3.502.056 4.493.168.317.035.595.165.834.388.24.223.393.498.465.824.063.29.111.62.144.988.033.368.052.672.057.914" id="Fill-11" fill="#231F20" mask="url(#mask-2)"/></g></g></g></g></g></g></svg>