<svg width="9" height="13" viewBox="0 0 9 13" version="1.1" xmlns="http://www.w3.org/2000/svg"><g id="Page-1" stroke="none" stroke-width="1" fill="none" fill-rule="evenodd"><g id="Splash-Page---Desktop" transform="translate(-812 -684)" fill="#231F20"><g id="Group-14" transform="translate(750 684)"><path d="M62 4.664c0-.562.087-1.092.264-1.59a4.16 4.16 0 0 1 .727-1.3 5.11 5.11 0 0 1 1.07-.96 4.602 4.602 0 0 1 1.3-.611A5.093 5.093 0 0 1 66.781 0c.741 0 1.43.174 2.067.52.638.347 1.157.85 1.555 1.512.399.662.597 1.408.597 2.243 0 .499-.044.989-.133 1.467-.09.48-.23.94-.422 1.383a4.891 4.891 0 0 1-.703 1.169 3.098 3.098 0 0 1-1.02.804c-.403.2-.846.3-1.329.3a2 2 0 0 1-.95-.25 1.481 1.481 0 0 1-.674-.687 87.64 87.64 0 0 0-.197.88l-.165.741c-.026.112-.074.297-.144.556-.07.256-.132.442-.183.554l-.225.489a5.878 5.878 0 0 1-.323.605c-.118.189-.263.415-.436.676l-.099.038-.064-.078c-.07-.818-.105-1.307-.105-1.469 0-.478.05-1.016.151-1.612a37.33 37.33 0 0 1 .469-2.247c.21-.9.331-1.43.365-1.586-.15-.338-.226-.78-.226-1.32 0-.432.122-.838.367-1.218.242-.38.552-.57.927-.57.287 0 .51.104.669.315.158.211.238.477.238.8 0 .345-.103.843-.308 1.493-.207.65-.31 1.138-.31 1.462 0 .327.105.6.316.815.21.217.466.324.766.324.259 0 .498-.065.718-.194.22-.131.404-.308.552-.531a4.627 4.627 0 0 0 .66-1.605 9.22 9.22 0 0 0 .141-.869c.03-.273.046-.532.046-.777 0-.901-.257-1.603-.77-2.105s-1.183-.754-2.007-.754c-.938 0-1.721.337-2.35 1.011-.627.675-.941 1.53-.941 2.567 0 .229.03.45.088.664.058.213.121.383.19.509l.19.354a.63.63 0 0 1 .087.238c0 .146-.035.336-.106.57-.069.235-.156.352-.26.352a1.01 1.01 0 0 1-.119-.023 1.42 1.42 0 0 1-.636-.438 2.292 2.292 0 0 1-.428-.737 5.097 5.097 0 0 1-.23-.845A4.563 4.563 0 0 1 62 4.664" id="pinterest"/></g></g></g></svg>