<svg width="13" height="10" viewBox="0 0 13 10" version="1.1" xmlns="http://www.w3.org/2000/svg"><g id="Page-1" stroke="none" stroke-width="1" fill="none" fill-rule="evenodd"><g id="Splash-Page---Desktop" transform="translate(-927 -686)" fill="#231F20"><g id="Group-14" transform="translate(750 684)"><path d="M190 3.188c-.368.51-.814.946-1.336 1.305a6.794 6.794 0 0 1-.305 2.354 7.093 7.093 0 0 1-.953 1.941 7.763 7.763 0 0 1-1.521 1.645c-.59.477-1.299.857-2.129 1.141a8.19 8.19 0 0 1-2.664.426c-1.49 0-2.854-.378-4.092-1.133.193.021.408.03.644.03 1.237 0 2.34-.359 3.307-1.076a2.69 2.69 0 0 1-1.55-.505 2.462 2.462 0 0 1-.94-1.245c.18.026.348.038.502.038.237 0 .471-.029.701-.086a2.653 2.653 0 0 1-1.53-.871 2.36 2.36 0 0 1-.606-1.606v-.03c.375.198.775.305 1.205.32a2.58 2.58 0 0 1-.867-.899 2.37 2.37 0 0 1-.32-1.202c0-.459.12-.883.362-1.274a7.493 7.493 0 0 0 2.429 1.864 7.77 7.77 0 0 0 3.064.777 2.646 2.646 0 0 1-.066-.579c0-.697.26-1.292.78-1.785.52-.492 1.148-.738 1.884-.738.77 0 1.42.266 1.948.798a5.44 5.44 0 0 0 1.69-.61c-.204.598-.594 1.063-1.172 1.39a5.494 5.494 0 0 0 1.535-.39" id="twitter"/></g></g></g></svg>